<mxfile host="app.diagrams.net" agent="Mozilla/5.0 (Macintosh; Intel Mac OS X 10_15_7) AppleWebKit/537.36 (KHTML, like Gecko) Chrome/135.0.0.0 Safari/537.36" version="26.1.0">
  <diagram name="Page-1" id="eZMzksqRZiLSn-NZMA3R">
    <mxGraphModel dx="1851" dy="609" grid="1" gridSize="10" guides="1" tooltips="1" connect="1" arrows="1" fold="1" page="1" pageScale="1" pageWidth="827" pageHeight="1169" math="0" shadow="0">
      <root>
        <mxCell id="0" />
        <mxCell id="1" parent="0" />
        <mxCell id="UxPQjYI0YEoXfbyNyKJX-3" value="" style="edgeStyle=orthogonalEdgeStyle;rounded=0;orthogonalLoop=1;jettySize=auto;html=1;" edge="1" parent="1" source="UxPQjYI0YEoXfbyNyKJX-1" target="UxPQjYI0YEoXfbyNyKJX-2">
          <mxGeometry relative="1" as="geometry" />
        </mxCell>
        <mxCell id="UxPQjYI0YEoXfbyNyKJX-1" value="GenAI( Loreal GPT)" style="whiteSpace=wrap;html=1;aspect=fixed;" vertex="1" parent="1">
          <mxGeometry x="200" y="180" width="100" height="100" as="geometry" />
        </mxCell>
        <mxCell id="UxPQjYI0YEoXfbyNyKJX-6" style="edgeStyle=orthogonalEdgeStyle;rounded=0;orthogonalLoop=1;jettySize=auto;html=1;entryX=0.5;entryY=1;entryDx=0;entryDy=0;entryPerimeter=0;" edge="1" parent="1" source="UxPQjYI0YEoXfbyNyKJX-2" target="UxPQjYI0YEoXfbyNyKJX-7">
          <mxGeometry relative="1" as="geometry">
            <mxPoint x="430" y="80" as="targetPoint" />
          </mxGeometry>
        </mxCell>
        <mxCell id="UxPQjYI0YEoXfbyNyKJX-8" value="Text to SQL" style="edgeLabel;html=1;align=center;verticalAlign=middle;resizable=0;points=[];" vertex="1" connectable="0" parent="UxPQjYI0YEoXfbyNyKJX-6">
          <mxGeometry x="0.1778" y="-1" relative="1" as="geometry">
            <mxPoint as="offset" />
          </mxGeometry>
        </mxCell>
        <mxCell id="UxPQjYI0YEoXfbyNyKJX-2" value="Companions ( Data Sense)" style="whiteSpace=wrap;html=1;aspect=fixed;" vertex="1" parent="1">
          <mxGeometry x="380" y="180" width="100" height="100" as="geometry" />
        </mxCell>
        <mxCell id="UxPQjYI0YEoXfbyNyKJX-5" style="edgeStyle=orthogonalEdgeStyle;rounded=0;orthogonalLoop=1;jettySize=auto;html=1;" edge="1" parent="1" source="UxPQjYI0YEoXfbyNyKJX-4" target="UxPQjYI0YEoXfbyNyKJX-2">
          <mxGeometry relative="1" as="geometry" />
        </mxCell>
        <mxCell id="UxPQjYI0YEoXfbyNyKJX-4" value="Actor" style="shape=umlActor;verticalLabelPosition=bottom;verticalAlign=top;html=1;outlineConnect=0;" vertex="1" parent="1">
          <mxGeometry x="560" y="200" width="30" height="60" as="geometry" />
        </mxCell>
        <mxCell id="UxPQjYI0YEoXfbyNyKJX-7" value="Big Query (CDS)" style="shape=cylinder3;whiteSpace=wrap;html=1;boundedLbl=1;backgroundOutline=1;size=15;" vertex="1" parent="1">
          <mxGeometry x="450" y="10" width="60" height="80" as="geometry" />
        </mxCell>
        <mxCell id="UxPQjYI0YEoXfbyNyKJX-9" value="" style="html=1;verticalLabelPosition=bottom;align=center;labelBackgroundColor=#ffffff;verticalAlign=top;strokeWidth=2;strokeColor=#0080F0;shadow=0;dashed=0;shape=mxgraph.ios7.icons.documents;" vertex="1" parent="1">
          <mxGeometry x="330" y="15" width="60" height="70" as="geometry" />
        </mxCell>
        <mxCell id="UxPQjYI0YEoXfbyNyKJX-10" style="edgeStyle=orthogonalEdgeStyle;rounded=0;orthogonalLoop=1;jettySize=auto;html=1;entryX=0.483;entryY=0.957;entryDx=0;entryDy=0;entryPerimeter=0;" edge="1" parent="1" source="UxPQjYI0YEoXfbyNyKJX-2" target="UxPQjYI0YEoXfbyNyKJX-9">
          <mxGeometry relative="1" as="geometry" />
        </mxCell>
        <mxCell id="UxPQjYI0YEoXfbyNyKJX-16" style="edgeStyle=orthogonalEdgeStyle;rounded=0;orthogonalLoop=1;jettySize=auto;html=1;" edge="1" parent="1" source="UxPQjYI0YEoXfbyNyKJX-11" target="UxPQjYI0YEoXfbyNyKJX-12">
          <mxGeometry relative="1" as="geometry" />
        </mxCell>
        <mxCell id="UxPQjYI0YEoXfbyNyKJX-11" value="SDDS" style="shape=cylinder3;whiteSpace=wrap;html=1;boundedLbl=1;backgroundOutline=1;size=15;" vertex="1" parent="1">
          <mxGeometry x="10" y="420" width="130" height="80" as="geometry" />
        </mxCell>
        <mxCell id="UxPQjYI0YEoXfbyNyKJX-14" value="" style="edgeStyle=orthogonalEdgeStyle;rounded=0;orthogonalLoop=1;jettySize=auto;html=1;" edge="1" parent="1" source="UxPQjYI0YEoXfbyNyKJX-12" target="UxPQjYI0YEoXfbyNyKJX-13">
          <mxGeometry relative="1" as="geometry" />
        </mxCell>
        <mxCell id="UxPQjYI0YEoXfbyNyKJX-12" value="CDS" style="shape=cylinder3;whiteSpace=wrap;html=1;boundedLbl=1;backgroundOutline=1;size=15;" vertex="1" parent="1">
          <mxGeometry x="230" y="420" width="60" height="80" as="geometry" />
        </mxCell>
        <mxCell id="UxPQjYI0YEoXfbyNyKJX-22" value="" style="edgeStyle=orthogonalEdgeStyle;rounded=0;orthogonalLoop=1;jettySize=auto;html=1;" edge="1" parent="1" source="UxPQjYI0YEoXfbyNyKJX-13" target="UxPQjYI0YEoXfbyNyKJX-21">
          <mxGeometry relative="1" as="geometry" />
        </mxCell>
        <mxCell id="UxPQjYI0YEoXfbyNyKJX-13" value="Unecorn" style="whiteSpace=wrap;html=1;" vertex="1" parent="1">
          <mxGeometry x="430" y="430" width="120" height="60" as="geometry" />
        </mxCell>
        <mxCell id="UxPQjYI0YEoXfbyNyKJX-15" style="edgeStyle=orthogonalEdgeStyle;rounded=0;orthogonalLoop=1;jettySize=auto;html=1;entryX=0.5;entryY=0;entryDx=0;entryDy=0;entryPerimeter=0;" edge="1" parent="1" source="UxPQjYI0YEoXfbyNyKJX-13" target="UxPQjYI0YEoXfbyNyKJX-11">
          <mxGeometry relative="1" as="geometry">
            <Array as="points">
              <mxPoint x="490" y="370" />
              <mxPoint x="75" y="370" />
            </Array>
          </mxGeometry>
        </mxCell>
        <mxCell id="UxPQjYI0YEoXfbyNyKJX-20" style="edgeStyle=orthogonalEdgeStyle;rounded=0;orthogonalLoop=1;jettySize=auto;html=1;" edge="1" parent="1" source="UxPQjYI0YEoXfbyNyKJX-17" target="UxPQjYI0YEoXfbyNyKJX-19">
          <mxGeometry relative="1" as="geometry" />
        </mxCell>
        <mxCell id="UxPQjYI0YEoXfbyNyKJX-41" style="edgeStyle=orthogonalEdgeStyle;rounded=0;orthogonalLoop=1;jettySize=auto;html=1;entryX=0;entryY=0.5;entryDx=0;entryDy=0;" edge="1" parent="1" source="UxPQjYI0YEoXfbyNyKJX-17" target="UxPQjYI0YEoXfbyNyKJX-40">
          <mxGeometry relative="1" as="geometry">
            <Array as="points">
              <mxPoint x="260" y="620" />
              <mxPoint x="290" y="620" />
              <mxPoint x="290" y="640" />
            </Array>
          </mxGeometry>
        </mxCell>
        <mxCell id="UxPQjYI0YEoXfbyNyKJX-17" value="CDS" style="shape=cylinder3;whiteSpace=wrap;html=1;boundedLbl=1;backgroundOutline=1;size=15;" vertex="1" parent="1">
          <mxGeometry x="230" y="520" width="60" height="80" as="geometry" />
        </mxCell>
        <mxCell id="UxPQjYI0YEoXfbyNyKJX-18" style="edgeStyle=orthogonalEdgeStyle;rounded=0;orthogonalLoop=1;jettySize=auto;html=1;entryX=0;entryY=0;entryDx=0;entryDy=52.5;entryPerimeter=0;" edge="1" parent="1" source="UxPQjYI0YEoXfbyNyKJX-11" target="UxPQjYI0YEoXfbyNyKJX-17">
          <mxGeometry relative="1" as="geometry" />
        </mxCell>
        <mxCell id="UxPQjYI0YEoXfbyNyKJX-19" value="Promo.ai" style="whiteSpace=wrap;html=1;" vertex="1" parent="1">
          <mxGeometry x="430" y="530" width="120" height="60" as="geometry" />
        </mxCell>
        <mxCell id="UxPQjYI0YEoXfbyNyKJX-21" value="Power BI Dashboards" style="whiteSpace=wrap;html=1;" vertex="1" parent="1">
          <mxGeometry x="630" y="430" width="120" height="60" as="geometry" />
        </mxCell>
        <mxCell id="UxPQjYI0YEoXfbyNyKJX-25" value="" style="edgeStyle=orthogonalEdgeStyle;rounded=0;orthogonalLoop=1;jettySize=auto;html=1;" edge="1" parent="1" source="UxPQjYI0YEoXfbyNyKJX-23" target="UxPQjYI0YEoXfbyNyKJX-24">
          <mxGeometry relative="1" as="geometry" />
        </mxCell>
        <mxCell id="UxPQjYI0YEoXfbyNyKJX-27" style="edgeStyle=orthogonalEdgeStyle;rounded=0;orthogonalLoop=1;jettySize=auto;html=1;entryX=0.5;entryY=0;entryDx=0;entryDy=0;" edge="1" parent="1" source="UxPQjYI0YEoXfbyNyKJX-23" target="UxPQjYI0YEoXfbyNyKJX-26">
          <mxGeometry relative="1" as="geometry" />
        </mxCell>
        <mxCell id="UxPQjYI0YEoXfbyNyKJX-23" value="Power BI Dashboards" style="whiteSpace=wrap;html=1;" vertex="1" parent="1">
          <mxGeometry x="630" y="530" width="120" height="60" as="geometry" />
        </mxCell>
        <mxCell id="UxPQjYI0YEoXfbyNyKJX-24" value="Regional" style="whiteSpace=wrap;html=1;" vertex="1" parent="1">
          <mxGeometry x="515" y="720" width="120" height="60" as="geometry" />
        </mxCell>
        <mxCell id="UxPQjYI0YEoXfbyNyKJX-26" value="Zonal" style="whiteSpace=wrap;html=1;" vertex="1" parent="1">
          <mxGeometry x="690" y="720" width="120" height="60" as="geometry" />
        </mxCell>
        <mxCell id="UxPQjYI0YEoXfbyNyKJX-31" value="" style="edgeStyle=orthogonalEdgeStyle;rounded=0;orthogonalLoop=1;jettySize=auto;html=1;" edge="1" parent="1" source="UxPQjYI0YEoXfbyNyKJX-28" target="UxPQjYI0YEoXfbyNyKJX-30">
          <mxGeometry relative="1" as="geometry" />
        </mxCell>
        <mxCell id="UxPQjYI0YEoXfbyNyKJX-34" value="" style="edgeStyle=orthogonalEdgeStyle;rounded=0;orthogonalLoop=1;jettySize=auto;html=1;" edge="1" parent="1" source="UxPQjYI0YEoXfbyNyKJX-28" target="UxPQjYI0YEoXfbyNyKJX-32">
          <mxGeometry relative="1" as="geometry" />
        </mxCell>
        <mxCell id="UxPQjYI0YEoXfbyNyKJX-35" value="" style="edgeStyle=orthogonalEdgeStyle;rounded=0;orthogonalLoop=1;jettySize=auto;html=1;" edge="1" parent="1" source="UxPQjYI0YEoXfbyNyKJX-28" target="UxPQjYI0YEoXfbyNyKJX-32">
          <mxGeometry relative="1" as="geometry" />
        </mxCell>
        <mxCell id="UxPQjYI0YEoXfbyNyKJX-37" value="" style="edgeStyle=orthogonalEdgeStyle;rounded=0;orthogonalLoop=1;jettySize=auto;html=1;" edge="1" parent="1" source="UxPQjYI0YEoXfbyNyKJX-28" target="UxPQjYI0YEoXfbyNyKJX-36">
          <mxGeometry relative="1" as="geometry" />
        </mxCell>
        <mxCell id="UxPQjYI0YEoXfbyNyKJX-28" value="Universal Semantic Layer ( LookML)" style="shape=cylinder3;whiteSpace=wrap;html=1;boundedLbl=1;backgroundOutline=1;size=15;" vertex="1" parent="1">
          <mxGeometry x="120" y="670" width="140" height="70" as="geometry" />
        </mxCell>
        <mxCell id="UxPQjYI0YEoXfbyNyKJX-29" style="edgeStyle=orthogonalEdgeStyle;rounded=0;orthogonalLoop=1;jettySize=auto;html=1;entryX=0;entryY=0.5;entryDx=0;entryDy=0;entryPerimeter=0;exitX=0.5;exitY=1;exitDx=0;exitDy=0;exitPerimeter=0;" edge="1" parent="1" source="UxPQjYI0YEoXfbyNyKJX-11" target="UxPQjYI0YEoXfbyNyKJX-28">
          <mxGeometry relative="1" as="geometry" />
        </mxCell>
        <mxCell id="UxPQjYI0YEoXfbyNyKJX-30" value="Entity relatiionships / Views / Glossary" style="shape=cylinder3;whiteSpace=wrap;html=1;boundedLbl=1;backgroundOutline=1;size=15;" vertex="1" parent="1">
          <mxGeometry x="130" y="830" width="120" height="70" as="geometry" />
        </mxCell>
        <mxCell id="UxPQjYI0YEoXfbyNyKJX-32" value="Formulas ( Calculated fields)" style="shape=cylinder3;whiteSpace=wrap;html=1;boundedLbl=1;backgroundOutline=1;size=15;" vertex="1" parent="1">
          <mxGeometry x="300" y="830" width="90" height="70" as="geometry" />
        </mxCell>
        <mxCell id="UxPQjYI0YEoXfbyNyKJX-33" style="edgeStyle=orthogonalEdgeStyle;rounded=0;orthogonalLoop=1;jettySize=auto;html=1;entryX=0.5;entryY=0;entryDx=0;entryDy=0;entryPerimeter=0;" edge="1" parent="1" source="UxPQjYI0YEoXfbyNyKJX-28" target="UxPQjYI0YEoXfbyNyKJX-32">
          <mxGeometry relative="1" as="geometry" />
        </mxCell>
        <mxCell id="UxPQjYI0YEoXfbyNyKJX-36" value="Governance" style="whiteSpace=wrap;html=1;" vertex="1" parent="1">
          <mxGeometry x="-40" y="835" width="120" height="60" as="geometry" />
        </mxCell>
        <mxCell id="UxPQjYI0YEoXfbyNyKJX-38" value="Governance" style="whiteSpace=wrap;html=1;" vertex="1" parent="1">
          <mxGeometry x="-130" y="540" width="120" height="60" as="geometry" />
        </mxCell>
        <mxCell id="UxPQjYI0YEoXfbyNyKJX-39" style="edgeStyle=orthogonalEdgeStyle;rounded=0;orthogonalLoop=1;jettySize=auto;html=1;entryX=0.308;entryY=0.875;entryDx=0;entryDy=0;entryPerimeter=0;" edge="1" parent="1" source="UxPQjYI0YEoXfbyNyKJX-38" target="UxPQjYI0YEoXfbyNyKJX-11">
          <mxGeometry relative="1" as="geometry" />
        </mxCell>
        <mxCell id="UxPQjYI0YEoXfbyNyKJX-40" value="Governance" style="whiteSpace=wrap;html=1;" vertex="1" parent="1">
          <mxGeometry x="310" y="610" width="120" height="60" as="geometry" />
        </mxCell>
        <mxCell id="UxPQjYI0YEoXfbyNyKJX-46" style="edgeStyle=orthogonalEdgeStyle;rounded=0;orthogonalLoop=1;jettySize=auto;html=1;" edge="1" parent="1" source="UxPQjYI0YEoXfbyNyKJX-42" target="UxPQjYI0YEoXfbyNyKJX-44">
          <mxGeometry relative="1" as="geometry" />
        </mxCell>
        <mxCell id="UxPQjYI0YEoXfbyNyKJX-48" value="" style="edgeStyle=orthogonalEdgeStyle;rounded=0;orthogonalLoop=1;jettySize=auto;html=1;" edge="1" parent="1" source="UxPQjYI0YEoXfbyNyKJX-42" target="UxPQjYI0YEoXfbyNyKJX-47">
          <mxGeometry relative="1" as="geometry" />
        </mxCell>
        <mxCell id="UxPQjYI0YEoXfbyNyKJX-42" value="Data Sense ( Companion)" style="whiteSpace=wrap;html=1;" vertex="1" parent="1">
          <mxGeometry x="550" y="835" width="120" height="60" as="geometry" />
        </mxCell>
        <mxCell id="UxPQjYI0YEoXfbyNyKJX-43" style="edgeStyle=orthogonalEdgeStyle;rounded=0;orthogonalLoop=1;jettySize=auto;html=1;entryX=1;entryY=0.5;entryDx=0;entryDy=0;entryPerimeter=0;" edge="1" parent="1" source="UxPQjYI0YEoXfbyNyKJX-42" target="UxPQjYI0YEoXfbyNyKJX-28">
          <mxGeometry relative="1" as="geometry" />
        </mxCell>
        <mxCell id="UxPQjYI0YEoXfbyNyKJX-44" value="Actor" style="shape=umlActor;verticalLabelPosition=bottom;verticalAlign=top;html=1;outlineConnect=0;" vertex="1" parent="1">
          <mxGeometry x="735" y="830" width="30" height="60" as="geometry" />
        </mxCell>
        <mxCell id="UxPQjYI0YEoXfbyNyKJX-47" value="Loreal GPT ( LLM Models / RAG )" style="whiteSpace=wrap;html=1;" vertex="1" parent="1">
          <mxGeometry x="550" y="975" width="120" height="60" as="geometry" />
        </mxCell>
      </root>
    </mxGraphModel>
  </diagram>
</mxfile>
